# xmcd
#
# Track frame offsets:
#	150
#	13753
#	32954
#	50726
#	66249
#	84294
#	101237
#	123357
#	143905
#	160202
#	181020
#	201843
#
# Disc length: 3022 seconds
#
# Revision: 0
# Processed by: cddbd v1.5.2PL0 Copyright (c) Steve Scherf et al.
# Submitted via: dBpowerAMP V4.0
#
DISCID=a60bcc0c
DTITLE=Scarlett - get there gone...
DYEAR=2008
DGENRE=Country
TTITLE0=Get There Gone
TTITLE1=T-Shirt
TTITLE2=Dear Love Songs
TTITLE3=Eyes Of The Highway
TTITLE4=Let´s Get Outta Here
TTITLE5=Too Smart
TTITLE6=Rock-A-Byed
TTITLE7=Heather
TTITLE8=Going Rate
TTITLE9=Choosy Heart
TTITLE10=Loving Jail
TTITLE11=The Older Sister
EXTD=
EXTT0=
EXTT1=
EXTT2=
EXTT3=
EXTT4=
EXTT5=
EXTT6=
EXTT7=
EXTT8=
EXTT9=
EXTT10=
EXTT11=
PLAYORDER=
